<mxfile host="app.diagrams.net" modified="2024-03-19T14:11:06.951Z" agent="Mozilla/5.0 (Windows NT 10.0; Win64; x64) AppleWebKit/537.36 (KHTML, like Gecko) Chrome/122.0.0.0 Safari/537.36" version="24.0.6" etag="8Oru3cQUeqT0Tz4LasZI" type="github">
  <diagram name="Pagina-1" id="_BIcd2fGNGywZXepcDtC">
    <mxGraphModel>
      <root>
        <mxCell id="0" />
        <mxCell id="1" parent="0" />
      </root>
    </mxGraphModel>
  </diagram>
</mxfile>
